#include <buzzer.h>

Tone jingleBells[] = {
    {NOTE_G4, 194},
    {0, 35},
    {NOTE_G4, 194},
    {0, 35},
    {NOTE_E5, 194},
    {0, 35},
    {NOTE_D5, 194},
    {0, 35},
    {NOTE_C5, 194},
    {0, 35},
    {NOTE_G4, 432},
    {0, 35},
    {0, 194},
    {NOTE_G4, 194},
    {0, 35},
    {NOTE_G4, 194},
    {0, 35},
    {NOTE_E5, 194},
    {0, 35},
    {NOTE_D5, 194},
    {0, 35},
    {NOTE_C5, 194},
    {0, 35},
    {NOTE_A4, 670},
    {0, 35},
    {NOTE_A4, 194},
    {0, 35},
    {NOTE_A4, 194},
    {0, 35},
    {NOTE_F5, 194},
    {0, 35},
    {NOTE_E5, 194},
    {0, 35},
    {NOTE_D5, 194},
    {0, 35},
    {NOTE_B4, 908},
    {0, 35},
    {NOTE_G5, 194},
    {0, 35},
    {NOTE_G5, 194},
    {0, 35},
    {NOTE_F5, 194},
    {0, 35},
    {NOTE_D5, 194},
    {0, 35},
    // Long,
    {NOTE_E5, 670},
    {0, 35},
    {NOTE_G4, 194},
    {0, 35},
    {NOTE_G4, 194},
    {0, 35},
    {NOTE_E5, 194},
    {0, 35},
    {NOTE_D5, 194},
    {0, 35},
    {NOTE_C5, 194},
    {0, 35},
    {NOTE_G4, 670},
    {0, 35},
    {NOTE_G4, 194},
    {0, 35},
    {NOTE_G4, 194},
    {0, 35},
    {NOTE_E5, 194},
    {0, 35},
    {NOTE_D5, 194},
    {0, 35},
    {NOTE_C5, 194},
    {0, 35},
    {NOTE_A4, 670},
    {0, 35},
    {NOTE_A4, 194},
    {0, 35},
    {NOTE_A4, 194},
    {0, 35},
    {NOTE_F5, 194},
    {0, 35},
    {NOTE_E5, 194},
    {0, 35},
    {NOTE_D5, 194},
    {0, 35},
    {NOTE_G5, 194},
    {0, 35},
    {NOTE_G5, 194},
    {0, 35},
    {NOTE_G5, 194},
    {0, 35},
    {NOTE_G5, 194},
    {0, 35},
    {NOTE_A5, 194},
    {0, 35},
    {NOTE_G5, 194},
    {0, 35},
    {NOTE_F5, 194},
    {0, 35},
    {NOTE_D5, 194},
    {0, 35},
    {NOTE_C5, 432},
    {0, 35},
    {NOTE_G5, 432},
    {0, 35},
    {NOTE_E5, 194},
    {0, 35},
    {NOTE_E5, 194},
    {0, 35},
    {NOTE_E5, 432},
    {0, 35},
    {NOTE_E5, 194},
    {0, 35},
    {NOTE_E5, 194},
    {0, 35},
    {NOTE_E5, 432},
    {0, 35},
    {NOTE_E5, 194},
    {0, 35},
    {NOTE_G5, 194},
    {0, 35},
    {NOTE_C5, 313},
    {0, 35},
    {NOTE_D5, 75},
    {0, 35},
    {NOTE_E5, 908},
    {0, 35},
    {NOTE_F5, 194},
    {0, 35},
    {NOTE_F5, 194},
    {0, 35},
    {NOTE_F5, 313},
    {0, 35},
    {NOTE_F5, 75},
    {0, 35},
    {NOTE_F5, 194},
    {0, 35},
    {NOTE_E5, 194},
    {0, 35},
    {NOTE_E5, 194},
    {0, 35},
    {NOTE_E5, 75},
    {0, 35},
    {NOTE_E5, 75},
    {0, 35},
    {NOTE_E5, 194},
    {0, 35},
    {NOTE_D5, 194},
    {0, 35},
    {NOTE_D5, 194},
    {0, 35},
    {NOTE_E5, 194},
    {0, 35},
    {NOTE_D5, 432},
    {0, 35},
    {NOTE_G5, 432},
    {0, 35},
    {NOTE_E5, 194},
    {0, 35},
    {NOTE_E5, 194},
    {0, 35},
    {NOTE_E5, 432},
    {0, 35},
    {NOTE_E5, 194},
    {0, 35},
    {NOTE_E5, 194},
    {0, 35},
    {NOTE_E5, 432},
    {0, 35},
    {NOTE_E5, 194},
    {0, 35},
    {NOTE_G5, 194},
    {0, 35},
    {NOTE_C5, 313},
    {0, 35},
    {NOTE_D5, 75},
    {0, 35},
    {NOTE_E5, 908},
    {0, 35},
    {NOTE_F5, 194},
    {0, 35},
    {NOTE_F5, 194},
    {0, 35},
    {NOTE_F5, 313},
    {0, 35},
    {NOTE_F5, 75},
    {0, 35},
    {NOTE_F5, 194},
    {0, 35},
    {NOTE_E5, 194},
    {0, 35},
    {NOTE_E5, 194},
    {0, 35},
    {NOTE_E5, 75},
    {0, 35},
    {NOTE_E5, 75},
    {0, 35},
    {NOTE_G5, 194},
    {0, 35},
    {NOTE_G5, 194},
    {0, 35},
    {NOTE_F5, 194},
    {0, 35},
    {NOTE_D5, 194},
    {0, 35},
    {NOTE_C5, 908},
    {0, 35},
    {0, 0}  // End of Melody
};